<svg width="538px" height="693px" viewBox="0 0 538 693" version="1.1" xmlns="http://www.w3.org/2000/svg" xmlns:xlink="http://www.w3.org/1999/xlink">
    <g id="cncsc_logo" transform="translate(-245.000000, -183.000000)" fill="#FFFFFF">
        <path d="M514,446.753731 L422.608974,446.753731 L422.608974,538.119403 L514,538.119403 L514,446.753731 Z M691.608974,365.731343 L600.217949,365.731343 L600.217949,457.097015 L691.608974,457.097015 L691.608974,365.731343 Z M514,274.365672 L422.608974,274.365672 L422.608974,365.731343 L514,365.731343 L514,274.365672 Z M245,183 L598.49359,183 L598.49359,274.365672 L689.884615,274.365672 L689.884615,183 L783,183 L783,274.365672 L691.608974,274.365672 L691.608974,365.731343 L783,365.731343 L783,541.422911 C783,661.594666 744.790041,727.215763 664.050594,779.80801 C584.118542,831.874334 547.679548,841.842347 513.316357,874.988412 L512.275641,876 L512.275641,629.485075 L422.608974,629.485075 L422.608974,720.850746 L333.804487,720.850746 L336.391026,629.485075 L422.608974,629.485075 L422.608974,538.119403 L336.391026,538.119403 L336.391026,446.753731 L245,446.753731 L245,365.731343 L336.391026,365.731343 L336.391026,274.365672 L245,274.365672 L245,183 Z"></path>
    </g>
</svg>
