<svg width="81px" height="133px" viewBox="0 0 81 133" version="1.1" xmlns="http://www.w3.org/2000/svg" xmlns:xlink="http://www.w3.org/1999/xlink">
  <g id="cncsc-logo-mid" stroke="none" stroke-width="1" fill="none" fill-rule="evenodd">
    <path d="M40.5,68.5820896 L26.7403846,68.5820896 L26.7403846,82.2935323 L40.5,82.2935323 L40.5,68.5820896 Z M67.2403846,56.4228856 L53.4807692,56.4228856 L53.4807692,70.1343284 L67.2403846,70.1343284 L67.2403846,56.4228856 Z M40.5,42.7114428 L26.7403846,42.7114428 L26.7403846,56.4228856 L40.5,56.4228856 L40.5,42.7114428 Z M-5.68434189e-14,29 L53.2211538,29 L53.2211538,42.7114428 L66.9807692,42.7114428 L66.9807692,29 L81,29 L81,42.7114428 L67.2403846,42.7114428 L67.2403846,56.4228856 L81,56.4228856 L81,82.7892969 C81,100.82373 75.2471994,110.67163 63.0912605,118.564261 C51.122336,126.335468 45.6305849,127.857428 40.4815195,132.76733 L40.2403846,133 L40.2403846,96.0049751 L26.7403846,96.0049751 L26.7403846,109.716418 L13.3701923,109.716418 L13.7596154,96.0049751 L26.7403846,96.0049751 L26.7403846,82.2935323 L13.7596154,82.2935323 L13.7596154,68.5820896 L-5.68434189e-14,68.5820896 L1.70530257e-13,56.4228856 L13.7596154,56.4228856 L13.7596154,42.7114428 L1.70530257e-13,42.7114428 L-5.68434189e-14,29 Z" id="cncsc_logo" fill="#999999"></path>
  </g>
</svg>
