<?xml version="1.0" encoding="UTF-8"?>
<svg width="81px" height="196px" viewBox="0 0 81 196" version="1.1" xmlns="http://www.w3.org/2000/svg" xmlns:xlink="http://www.w3.org/1999/xlink">
  <g id="cncsc-logo-dark" stroke="none" stroke-width="1" fill="none" fill-rule="evenodd">
    <path d="M40.5,116.58209 L26.7403846,116.58209 L26.7403846,130.293532 L40.5,130.293532 L40.5,116.58209 Z M67.2403846,104.422886 L53.4807692,104.422886 L53.4807692,118.134328 L67.2403846,118.134328 L67.2403846,104.422886 Z M40.5,90.7114428 L26.7403846,90.7114428 L26.7403846,104.422886 L40.5,104.422886 L40.5,90.7114428 Z M-5.68434189e-14,77 L53.2211538,77 L53.2211538,90.7114428 L66.9807692,90.7114428 L66.9807692,77 L81,77 L81,90.7114428 L67.2403846,90.7114428 L67.2403846,104.422886 L81,104.422886 L81,130.789297 C81,148.82373 75.2471994,158.67163 63.0912605,166.564261 C51.122336,174.335468 45.6305849,175.857428 40.4815195,180.76733 L40.2403846,181 L40.2403846,144.004975 L26.7403846,144.004975 L26.7403846,157.716418 L13.3701923,157.716418 L13.7596154,144.004975 L26.7403846,144.004975 L26.7403846,130.293532 L13.7596154,130.293532 L13.7596154,116.58209 L-5.68434189e-14,116.58209 L1.70530257e-13,104.422886 L13.7596154,104.422886 L13.7596154,90.7114428 L1.70530257e-13,90.7114428 L-5.68434189e-14,77 Z" id="cncsc_logo" fill="#FFFFFF"></path>
  </g>
</svg>
