<svg width="81px" height="147px" viewBox="0 0 81 147" version="1.1" xmlns="http://www.w3.org/2000/svg" xmlns:xlink="http://www.w3.org/1999/xlink">
  <g id="cncsc-logo-mid" stroke="none" stroke-width="1" fill="none" fill-rule="evenodd">
    <path d="M40.5,82.5820896 L26.7403846,82.5820896 L26.7403846,96.2935323 L40.5,96.2935323 L40.5,82.5820896 Z M67.2403846,70.4228856 L53.4807692,70.4228856 L53.4807692,84.1343284 L67.2403846,84.1343284 L67.2403846,70.4228856 Z M40.5,56.7114428 L26.7403846,56.7114428 L26.7403846,70.4228856 L40.5,70.4228856 L40.5,56.7114428 Z M-5.68434189e-14,43 L53.2211538,43 L53.2211538,56.7114428 L66.9807692,56.7114428 L66.9807692,43 L81,43 L81,56.7114428 L67.2403846,56.7114428 L67.2403846,70.4228856 L81,70.4228856 L81,96.7892969 C81,114.82373 75.2471994,124.67163 63.0912605,132.564261 C51.122336,140.335468 45.6305849,141.857428 40.4815195,146.76733 L40.2403846,147 L40.2403846,110.004975 L26.7403846,110.004975 L26.7403846,123.716418 L13.3701923,123.716418 L13.7596154,110.004975 L26.7403846,110.004975 L26.7403846,96.2935323 L13.7596154,96.2935323 L13.7596154,82.5820896 L-5.68434189e-14,82.5820896 L1.70530257e-13,70.4228856 L13.7596154,70.4228856 L13.7596154,56.7114428 L1.70530257e-13,56.7114428 L-5.68434189e-14,43 Z" id="cncsc_logo" fill="#999999"></path>
  </g>
</svg>
