<svg width="81px" height="104px" viewBox="0 0 81 104" version="1.1" xmlns="http://www.w3.org/2000/svg" xmlns:xlink="http://www.w3.org/1999/xlink">
  <g id="cncsc-logo-mid" stroke="none" stroke-width="1" fill="none" fill-rule="evenodd">
    <path d="M40.5,39.5820896 L26.7403846,39.5820896 L26.7403846,53.2935323 L40.5,53.2935323 L40.5,39.5820896 Z M67.2403846,27.4228856 L53.4807692,27.4228856 L53.4807692,41.1343284 L67.2403846,41.1343284 L67.2403846,27.4228856 Z M40.5,13.7114428 L26.7403846,13.7114428 L26.7403846,27.4228856 L40.5,27.4228856 L40.5,13.7114428 Z M-5.68434189e-14,0 L53.2211538,0 L53.2211538,13.7114428 L66.9807692,13.7114428 L66.9807692,0 L81,0 L81,13.7114428 L67.2403846,13.7114428 L67.2403846,27.4228856 L81,27.4228856 L81,53.7892969 C81,71.8237305 75.2471994,81.6716296 63.0912605,89.5642612 C51.122336,97.3354677 45.6305849,98.8574281 40.4815195,103.76733 L40.2403846,104 L40.2403846,67.0049751 L26.7403846,67.0049751 L26.7403846,80.7164179 L13.3701923,80.7164179 L13.7596154,67.0049751 L26.7403846,67.0049751 L26.7403846,53.2935323 L13.7596154,53.2935323 L13.7596154,39.5820896 L-5.68434189e-14,39.5820896 L1.70530257e-13,27.4228856 L13.7596154,27.4228856 L13.7596154,13.7114428 L1.70530257e-13,13.7114428 L-5.68434189e-14,0 Z" id="cncsc_logo" fill="#999999"></path>
  </g>
</svg>
