<svg width="347px" height="40px" viewBox="0 0 347 40" version="1.1" xmlns="http://www.w3.org/2000/svg" xmlns:xlink="http://www.w3.org/1999/xlink">
  <g id="contributor-armor-dark" stroke="none" stroke-width="1" fill="none" fill-rule="evenodd">
    <rect id="Rectangle" fill-opacity="0.1" fill="#FFFFFF" x="0" y="13" width="280" height="27"></rect>
    <path d="M314.51195,13 L314.51195,26.2711864 L314.51195,26.3063885 L314.51195,26.3415906 L316.983433,23.4198175 L318.289788,23.4198175 L318.289788,29.5449804 L316.983433,29.5449804 L316.983433,26.0247718 L317.01874,25.1447197 L317.01874,25.1095176 L314.51195,28.0664928 L314.51195,28.1016949 L314.51195,28.136897 L314.51195,40 L346.5,40 L346.5,13 L314.51195,13 Z M313.134981,28.136897 L313.134981,28.0664928 L310.663498,25.1095176 L310.628191,25.0743155 L310.663498,26.0247718 L310.663498,29.5449804 L309.357143,29.5449804 L309.357143,23.4198175 L310.663498,23.4198175 L313.134981,26.3415906 L313.134981,26.3063885 L313.134981,26.2711864 L313.134981,13 L281.5,13 L281.5,39.9647979 L313.134981,39.9647979 L313.134981,28.136897 Z M296.858501,29.5449804 L295.905215,27.8200782 L295.834601,27.8200782 L295.799294,27.8200782 L295.481532,27.8200782 L293.610266,27.8200782 L294.24579,26.6232073 L295.093156,26.6232073 L295.26969,26.6232073 L294.104563,24.5110821 L294.104563,24.4758801 L292.762901,26.8696219 L291.280011,29.5449804 L289.797121,29.5449804 L293.327811,23.3846154 L294.846008,23.3846154 L298.376697,29.5449804 L296.858501,29.5449804 Z M305.543998,29.5449804 L303.001901,27.327249 L303.001901,26.1303781 L304.979087,26.1303781 C305.649919,26.1303781 306.002988,25.8839635 306.002988,25.3559322 C306.002988,24.8279009 305.649919,24.5814863 304.979087,24.5814863 L301.30717,24.5814863 L301.30717,29.5449804 L300.000815,29.5449804 L300.000815,23.4198175 L304.908474,23.4198175 C306.88566,23.4198175 307.274036,24.4758801 307.274036,25.3911343 C307.274036,26.9752282 306.002988,27.327249 304.908474,27.327249 L304.802553,27.327249 L307.521184,29.5801825 L305.543998,29.5449804 Z M336.261,29.5449804 L333.718903,27.327249 L333.718903,26.1303781 L335.696089,26.1303781 C336.36692,26.1303781 336.719989,25.8839635 336.719989,25.3559322 C336.719989,24.8279009 336.36692,24.5814863 335.696089,24.5814863 L332.024172,24.5814863 L332.024172,29.5449804 L330.717817,29.5449804 L330.717817,23.4198175 L335.625475,23.4198175 C337.602662,23.4198175 337.991038,24.4758801 337.991038,25.3911343 C337.991038,26.9752282 336.719989,27.327249 335.625475,27.327249 L335.519555,27.327249 L338.238186,29.5801825 L336.261,29.5449804 Z M327.610809,28.7705346 C326.869364,29.36897 325.810158,29.6857888 324.503802,29.6857888 C323.197447,29.6857888 322.13824,29.36897 321.396795,28.7705346 C320.725964,28.2073012 320.337588,27.3976532 320.337588,26.4823989 C320.337588,25.5671447 320.690657,24.7574967 321.396795,24.1942634 C322.13824,23.5958279 323.197447,23.2790091 324.503802,23.2790091 C325.810158,23.2790091 326.869364,23.5958279 327.610809,24.1942634 C328.28164,24.7574967 328.670016,25.5671447 328.670016,26.4823989 C328.670016,27.3976532 328.28164,28.2073012 327.610809,28.7705346 Z M324.503802,24.4758801 C322.703151,24.4758801 321.67925,25.2151239 321.67925,26.4823989 C321.67925,27.7496741 322.703151,28.4889179 324.503802,28.4889179 C326.304454,28.4889179 327.328354,27.7496741 327.328354,26.4823989 C327.328354,25.2151239 326.304454,24.4758801 324.503802,24.4758801 L324.503802,24.4758801 Z" id="Shape" fill="#FFFFFF" fill-rule="nonzero"></path>
    <g id="CONTRIBUTED-AND-MAIN" transform="translate(16.581055, 22.792969)" fill="#FFFFFF" fill-rule="nonzero">
      <path d="M5.47363281,4.95117188 C5.38574219,5.703125 5.10823568,6.28336589 4.64111328,6.69189453 C4.17399089,7.10042318 3.5530599,7.3046875 2.77832031,7.3046875 C1.93847656,7.3046875 1.26546224,7.00358073 0.759277344,6.40136719 C0.253092448,5.79915365 0,4.99348958 0,3.984375 L0,3.30078125 C0,2.63997396 0.118001302,2.05891927 0.354003906,1.55761719 C0.59000651,1.0563151 0.924479167,0.671386719 1.35742188,0.402832031 C1.79036458,0.134277344 2.29166667,0 2.86132812,0 C3.61653646,0 4.22200521,0.21077474 4.67773438,0.632324219 C5.13346354,1.0538737 5.39876302,1.63736979 5.47363281,2.3828125 L4.53125,2.3828125 C4.44986979,1.81640625 4.27327474,1.40625 4.00146484,1.15234375 C3.72965495,0.8984375 3.34960938,0.771484375 2.86132812,0.771484375 C2.26236979,0.771484375 1.79280599,0.992838542 1.45263672,1.43554688 C1.11246745,1.87825521 0.942382812,2.50813802 0.942382812,3.32519531 L0.942382812,4.01367188 C0.942382812,4.78515625 1.10351562,5.39876302 1.42578125,5.85449219 C1.74804688,6.31022135 2.19889323,6.53808594 2.77832031,6.53808594 C3.29915365,6.53808594 3.69873047,6.42008464 3.97705078,6.18408203 C4.25537109,5.94807943 4.44010417,5.53710938 4.53125,4.95117188 L5.47363281,4.95117188 Z" id="Path"></path>
      <path d="M15.2216797,3.88183594 C15.2216797,4.57845052 15.1044922,5.18636068 14.8701172,5.70556641 C14.6357422,6.22477214 14.3037109,6.62109375 13.8740234,6.89453125 C13.4443359,7.16796875 12.9430339,7.3046875 12.3701172,7.3046875 C11.8102214,7.3046875 11.3138021,7.16715495 10.8808594,6.89208984 C10.4479167,6.61702474 10.1118164,6.22477214 9.87255859,5.71533203 C9.63330078,5.20589193 9.51041667,4.61588542 9.50390625,3.9453125 L9.50390625,3.43261719 C9.50390625,2.74902344 9.62272135,2.14518229 9.86035156,1.62109375 C10.0979818,1.09700521 10.434082,0.695800781 10.8686523,0.417480469 C11.3032227,0.139160156 11.8004557,0 12.3603516,0 C12.930013,0 13.4321289,0.137532552 13.8666992,0.412597656 C14.3012695,0.68766276 14.6357422,1.08642578 14.8701172,1.60888672 C15.1044922,2.13134766 15.2216797,2.73925781 15.2216797,3.43261719 L15.2216797,3.88183594 Z M14.2890625,3.42285156 C14.2890625,2.5797526 14.1197917,1.93277995 13.78125,1.48193359 C13.4427083,1.03108724 12.9690755,0.805664062 12.3603516,0.805664062 C11.7679036,0.805664062 11.3015951,1.03108724 10.9614258,1.48193359 C10.6212565,1.93277995 10.4462891,2.55859375 10.4365234,3.359375 L10.4365234,3.88183594 C10.4365234,4.69889323 10.6082357,5.34098307 10.9516602,5.80810547 C11.2950846,6.27522786 11.7679036,6.50878906 12.3701172,6.50878906 C12.9755859,6.50878906 13.4443359,6.2882487 13.7763672,5.84716797 C14.1083984,5.40608724 14.2792969,4.77376302 14.2890625,3.95019531 L14.2890625,3.42285156 Z" id="Shape"></path>
      <polygon id="Path" points="25.0917969 7.20703125 24.1494141 7.20703125 20.5703125 1.72851562 20.5703125 7.20703125 19.6279297 7.20703125 19.6279297 0.09765625 20.5703125 0.09765625 24.1591797 5.60058594 24.1591797 0.09765625 25.0917969 0.09765625"></polygon>
      <polygon id="Path" points="34.5273438 0.869140625 32.2421875 0.869140625 32.2421875 7.20703125 31.3095703 7.20703125 31.3095703 0.869140625 29.0292969 0.869140625 29.0292969 0.09765625 34.5273438 0.09765625"></polygon>
      <path d="M41.1894531,4.33105469 L39.5195312,4.33105469 L39.5195312,7.20703125 L38.5771484,7.20703125 L38.5771484,0.09765625 L40.9306641,0.09765625 C41.7314453,0.09765625 42.3474935,0.279947917 42.7788086,0.64453125 C43.2101237,1.00911458 43.4257812,1.53971354 43.4257812,2.23632812 C43.4257812,2.67903646 43.3061523,3.06477865 43.0668945,3.39355469 C42.8276367,3.72233073 42.4947917,3.96809896 42.0683594,4.13085938 L43.7382812,7.1484375 L43.7382812,7.20703125 L42.7324219,7.20703125 L41.1894531,4.33105469 Z M39.5195312,3.56445312 L40.9599609,3.56445312 C41.4254557,3.56445312 41.7957357,3.44401042 42.0708008,3.203125 C42.3458659,2.96223958 42.4833984,2.63997396 42.4833984,2.23632812 C42.4833984,1.796875 42.3523763,1.45996094 42.090332,1.22558594 C41.8282878,0.991210938 41.4498698,0.872395833 40.9550781,0.869140625 L39.5195312,0.869140625 L39.5195312,3.56445312 Z" id="Shape"></path>
      <polygon id="Path" points="48.7451172 7.20703125 47.8076172 7.20703125 47.8076172 0.09765625 48.7451172 0.09765625"></polygon>
      <path d="M53.4589844,7.20703125 L53.4589844,0.09765625 L55.7832031,0.09765625 C56.5546875,0.09765625 57.1349284,0.257161458 57.5239258,0.576171875 C57.9129232,0.895182292 58.1074219,1.3671875 58.1074219,1.9921875 C58.1074219,2.32421875 58.0130208,2.6180013 57.8242188,2.87353516 C57.6354167,3.12906901 57.3782552,3.32682292 57.0527344,3.46679688 C57.436849,3.57421875 57.7403971,3.77848307 57.9633789,4.07958984 C58.1863607,4.38069661 58.2978516,4.73958333 58.2978516,5.15625 C58.2978516,5.79427083 58.0911458,6.29557292 57.6777344,6.66015625 C57.2643229,7.02473958 56.680013,7.20703125 55.9248047,7.20703125 L53.4589844,7.20703125 Z M54.3964844,3.88183594 L54.3964844,6.44042969 L55.9443359,6.44042969 C56.3805339,6.44042969 56.7247721,6.3273112 56.9770508,6.10107422 C57.2293294,5.87483724 57.3554688,5.56315104 57.3554688,5.16601562 C57.3554688,4.30989583 56.889974,3.88183594 55.9589844,3.88183594 L54.3964844,3.88183594 Z M54.3964844,3.12988281 L55.8125,3.12988281 C56.2226562,3.12988281 56.5506185,3.02734375 56.7963867,2.82226562 C57.0421549,2.6171875 57.1650391,2.33886719 57.1650391,1.98730469 C57.1650391,1.59667969 57.0511068,1.31266276 56.8232422,1.13525391 C56.5953776,0.957845052 56.2486979,0.869140625 55.7832031,0.869140625 L54.3964844,0.869140625 L54.3964844,3.12988281 Z" id="Shape"></path>
      <path d="M67.6894531,0.09765625 L67.6894531,4.93164062 C67.6861979,5.60221354 67.4754232,6.15071615 67.0571289,6.57714844 C66.6388346,7.00358073 66.0716146,7.24283854 65.3554688,7.29492188 L65.1064453,7.3046875 C64.3284505,7.3046875 63.7083333,7.09472656 63.2460938,6.67480469 C62.7838542,6.25488281 62.5494792,5.67708333 62.5429688,4.94140625 L62.5429688,0.09765625 L63.4707031,0.09765625 L63.4707031,4.91210938 C63.4707031,5.42643229 63.6123047,5.82600911 63.8955078,6.11083984 C64.1787109,6.39567057 64.5823568,6.53808594 65.1064453,6.53808594 C65.6370443,6.53808594 66.0431315,6.39648438 66.324707,6.11328125 C66.6062826,5.83007812 66.7470703,5.4313151 66.7470703,4.91699219 L66.7470703,0.09765625 L67.6894531,0.09765625 Z" id="Path"></path>
      <polygon id="Path" points="77.0810547 0.869140625 74.7958984 0.869140625 74.7958984 7.20703125 73.8632812 7.20703125 73.8632812 0.869140625 71.5830078 0.869140625 71.5830078 0.09765625 77.0810547 0.09765625"></polygon>
      <polygon id="Path" points="85.1542969 3.92089844 82.0732422 3.92089844 82.0732422 6.44042969 85.6523438 6.44042969 85.6523438 7.20703125 81.1357422 7.20703125 81.1357422 0.09765625 85.6035156 0.09765625 85.6035156 0.869140625 82.0732422 0.869140625 82.0732422 3.15429688 85.1542969 3.15429688"></polygon>
      <path d="M89.8193359,7.20703125 L89.8193359,0.09765625 L91.8261719,0.09765625 C92.4446615,0.09765625 92.9915365,0.234375 93.4667969,0.5078125 C93.9420573,0.78125 94.309082,1.1702474 94.5678711,1.67480469 C94.8266602,2.17936198 94.9576823,2.75878906 94.9609375,3.41308594 L94.9609375,3.8671875 C94.9609375,4.53776042 94.831543,5.12532552 94.5727539,5.62988281 C94.3139648,6.1344401 93.9444987,6.5218099 93.4643555,6.79199219 C92.9842122,7.06217448 92.4251302,7.20052083 91.7871094,7.20703125 L89.8193359,7.20703125 Z M90.7568359,0.869140625 L90.7568359,6.44042969 L91.7431641,6.44042969 C92.4658203,6.44042969 93.0281576,6.21582031 93.4301758,5.76660156 C93.832194,5.31738281 94.0332031,4.67773438 94.0332031,3.84765625 L94.0332031,3.43261719 C94.0332031,2.62532552 93.8435872,1.99788411 93.4643555,1.55029297 C93.0851237,1.10270182 92.5472005,0.875651042 91.8505859,0.869140625 L90.7568359,0.869140625 Z" id="Shape"></path>
      <path d="M108.77832,5.3515625 L105.799805,5.3515625 L105.130859,7.20703125 L104.164062,7.20703125 L106.878906,0.09765625 L107.699219,0.09765625 L110.418945,7.20703125 L109.457031,7.20703125 L108.77832,5.3515625 Z M106.083008,4.58007812 L108.5,4.58007812 L107.289062,1.25488281 L106.083008,4.58007812 Z" id="Shape"></path>
      <polygon id="Path" points="119.839844 7.20703125 118.897461 7.20703125 115.318359 1.72851562 115.318359 7.20703125 114.375977 7.20703125 114.375977 0.09765625 115.318359 0.09765625 118.907227 5.60058594 118.907227 0.09765625 119.839844 0.09765625"></polygon>
      <path d="M124.504883,7.20703125 L124.504883,0.09765625 L126.511719,0.09765625 C127.130208,0.09765625 127.677083,0.234375 128.152344,0.5078125 C128.627604,0.78125 128.994629,1.1702474 129.253418,1.67480469 C129.512207,2.17936198 129.643229,2.75878906 129.646484,3.41308594 L129.646484,3.8671875 C129.646484,4.53776042 129.51709,5.12532552 129.258301,5.62988281 C128.999512,6.1344401 128.630046,6.5218099 128.149902,6.79199219 C127.669759,7.06217448 127.110677,7.20052083 126.472656,7.20703125 L124.504883,7.20703125 Z M125.442383,0.869140625 L125.442383,6.44042969 L126.428711,6.44042969 C127.151367,6.44042969 127.713704,6.21582031 128.115723,5.76660156 C128.517741,5.31738281 128.71875,4.67773438 128.71875,3.84765625 L128.71875,3.43261719 C128.71875,2.62532552 128.529134,1.99788411 128.149902,1.55029297 C127.770671,1.10270182 127.232747,0.875651042 126.536133,0.869140625 L125.442383,0.869140625 Z" id="Shape"></path>
      <polygon id="Path" points="140.749023 0.09765625 143.073242 5.8984375 145.397461 0.09765625 146.613281 0.09765625 146.613281 7.20703125 145.675781 7.20703125 145.675781 4.43847656 145.763672 1.45019531 143.429688 7.20703125 142.711914 7.20703125 140.382812 1.46484375 140.475586 4.43847656 140.475586 7.20703125 139.538086 7.20703125 139.538086 0.09765625"></polygon>
      <path d="M155.282227,5.3515625 L152.303711,5.3515625 L151.634766,7.20703125 L150.667969,7.20703125 L153.382812,0.09765625 L154.203125,0.09765625 L156.922852,7.20703125 L155.960938,7.20703125 L155.282227,5.3515625 Z M152.586914,4.58007812 L155.003906,4.58007812 L153.792969,1.25488281 L152.586914,4.58007812 Z" id="Shape"></path>
      <polygon id="Path" points="161.885742 7.20703125 160.948242 7.20703125 160.948242 0.09765625 161.885742 0.09765625"></polygon>
      <polygon id="Path" points="172.063477 7.20703125 171.121094 7.20703125 167.541992 1.72851562 167.541992 7.20703125 166.599609 7.20703125 166.599609 0.09765625 167.541992 0.09765625 171.130859 5.60058594 171.130859 0.09765625 172.063477 0.09765625"></polygon>
      <polygon id="Path" points="181.499023 0.869140625 179.213867 0.869140625 179.213867 7.20703125 178.28125 7.20703125 178.28125 0.869140625 176.000977 0.869140625 176.000977 0.09765625 181.499023 0.09765625"></polygon>
      <path d="M189.09375,5.3515625 L186.115234,5.3515625 L185.446289,7.20703125 L184.479492,7.20703125 L187.194336,0.09765625 L188.014648,0.09765625 L190.734375,7.20703125 L189.772461,7.20703125 L189.09375,5.3515625 Z M186.398438,4.58007812 L188.81543,4.58007812 L187.604492,1.25488281 L186.398438,4.58007812 Z" id="Shape"></path>
      <polygon id="Path" points="195.697266 7.20703125 194.759766 7.20703125 194.759766 0.09765625 195.697266 0.09765625"></polygon>
      <polygon id="Path" points="205.875 7.20703125 204.932617 7.20703125 201.353516 1.72851562 201.353516 7.20703125 200.411133 7.20703125 200.411133 0.09765625 201.353516 0.09765625 204.942383 5.60058594 204.942383 0.09765625 205.875 0.09765625"></polygon>
      <polygon id="Path" points="214.558594 3.92089844 211.477539 3.92089844 211.477539 6.44042969 215.056641 6.44042969 215.056641 7.20703125 210.540039 7.20703125 210.540039 0.09765625 215.007812 0.09765625 215.007812 0.869140625 211.477539 0.869140625 211.477539 3.15429688 214.558594 3.15429688"></polygon>
      <path d="M219.223633,7.20703125 L219.223633,0.09765625 L221.230469,0.09765625 C221.848958,0.09765625 222.395833,0.234375 222.871094,0.5078125 C223.346354,0.78125 223.713379,1.1702474 223.972168,1.67480469 C224.230957,2.17936198 224.361979,2.75878906 224.365234,3.41308594 L224.365234,3.8671875 C224.365234,4.53776042 224.23584,5.12532552 223.977051,5.62988281 C223.718262,6.1344401 223.348796,6.5218099 222.868652,6.79199219 C222.388509,7.06217448 221.829427,7.20052083 221.191406,7.20703125 L219.223633,7.20703125 Z M220.161133,0.869140625 L220.161133,6.44042969 L221.147461,6.44042969 C221.870117,6.44042969 222.432454,6.21582031 222.834473,5.76660156 C223.236491,5.31738281 223.4375,4.67773438 223.4375,3.84765625 L223.4375,3.43261719 C223.4375,2.62532552 223.247884,1.99788411 222.868652,1.55029297 C222.489421,1.10270182 221.951497,0.875651042 221.254883,0.869140625 L220.161133,0.869140625 Z" id="Shape"></path>
      <path d="M234.256836,7.20703125 L234.256836,0.09765625 L236.581055,0.09765625 C237.352539,0.09765625 237.93278,0.257161458 238.321777,0.576171875 C238.710775,0.895182292 238.905273,1.3671875 238.905273,1.9921875 C238.905273,2.32421875 238.810872,2.6180013 238.62207,2.87353516 C238.433268,3.12906901 238.176107,3.32682292 237.850586,3.46679688 C238.234701,3.57421875 238.538249,3.77848307 238.76123,4.07958984 C238.984212,4.38069661 239.095703,4.73958333 239.095703,5.15625 C239.095703,5.79427083 238.888997,6.29557292 238.475586,6.66015625 C238.062174,7.02473958 237.477865,7.20703125 236.722656,7.20703125 L234.256836,7.20703125 Z M235.194336,3.88183594 L235.194336,6.44042969 L236.742188,6.44042969 C237.178385,6.44042969 237.522624,6.3273112 237.774902,6.10107422 C238.027181,5.87483724 238.15332,5.56315104 238.15332,5.16601562 C238.15332,4.30989583 237.687826,3.88183594 236.756836,3.88183594 L235.194336,3.88183594 Z M235.194336,3.12988281 L236.610352,3.12988281 C237.020508,3.12988281 237.34847,3.02734375 237.594238,2.82226562 C237.840007,2.6171875 237.962891,2.33886719 237.962891,1.98730469 C237.962891,1.59667969 237.848958,1.31266276 237.621094,1.13525391 C237.393229,0.957845052 237.046549,0.869140625 236.581055,0.869140625 L235.194336,0.869140625 L235.194336,3.12988281 Z" id="Shape"></path>
      <polygon id="Path" points="245.381836 3.66699219 247.237305 0.09765625 248.301758 0.09765625 245.850586 4.55566406 245.850586 7.20703125 244.913086 7.20703125 244.913086 4.55566406 242.461914 0.09765625 243.536133 0.09765625"></polygon>
    </g>
  </g>
</svg>
