<svg width="345px" height="40px" viewBox="0 0 345 40" version="1.1" xmlns="http://www.w3.org/2000/svg" xmlns:xlink="http://www.w3.org/1999/xlink">
    <g id="contributor-armor-dark" stroke="none" stroke-width="1" fill="none" fill-rule="evenodd">
        <g id="Group-2" transform="translate(0.000000, 13.000000)" fill="#FFFFFF">
            <rect id="Rectangle" fill-opacity="0.1" x="0" y="0" width="280" height="27"></rect>
            <path d="M313.01195,0 L313.01195,13.2711864 L313.01195,13.3063885 L313.01195,13.3415906 L315.483433,10.4198175 L316.789788,10.4198175 L316.789788,16.5449804 L315.483433,16.5449804 L315.483433,13.0247718 L315.51874,12.1447197 L315.51874,12.1095176 L313.01195,15.0664928 L313.01195,15.1016949 L313.01195,15.136897 L313.01195,27 L345,27 L345,0 L313.01195,0 Z M311.634981,15.136897 L311.634981,15.0664928 L309.163498,12.1095176 L309.128191,12.0743155 L309.163498,13.0247718 L309.163498,16.5449804 L307.857143,16.5449804 L307.857143,10.4198175 L309.163498,10.4198175 L311.634981,13.3415906 L311.634981,13.3063885 L311.634981,13.2711864 L311.634981,0 L280,0 L280,26.9647979 L311.634981,26.9647979 L311.634981,15.136897 Z M295.358501,16.5449804 L294.405215,14.8200782 L294.334601,14.8200782 L294.299294,14.8200782 L293.981532,14.8200782 L292.110266,14.8200782 L292.74579,13.6232073 L293.593156,13.6232073 L293.76969,13.6232073 L292.604563,11.5110821 L292.604563,11.4758801 L291.262901,13.8696219 L289.780011,16.5449804 L288.297121,16.5449804 L291.827811,10.3846154 L293.346008,10.3846154 L296.876697,16.5449804 L295.358501,16.5449804 Z M304.043998,16.5449804 L301.501901,14.327249 L301.501901,13.1303781 L303.479087,13.1303781 C304.149919,13.1303781 304.502988,12.8839635 304.502988,12.3559322 C304.502988,11.8279009 304.149919,11.5814863 303.479087,11.5814863 L299.80717,11.5814863 L299.80717,16.5449804 L298.500815,16.5449804 L298.500815,10.4198175 L303.408474,10.4198175 C305.38566,10.4198175 305.774036,11.4758801 305.774036,12.3911343 C305.774036,13.9752282 304.502988,14.327249 303.408474,14.327249 L303.302553,14.327249 L306.021184,16.5801825 L304.043998,16.5449804 Z M334.761,16.5449804 L332.218903,14.327249 L332.218903,13.1303781 L334.196089,13.1303781 C334.86692,13.1303781 335.219989,12.8839635 335.219989,12.3559322 C335.219989,11.8279009 334.86692,11.5814863 334.196089,11.5814863 L330.524172,11.5814863 L330.524172,16.5449804 L329.217817,16.5449804 L329.217817,10.4198175 L334.125475,10.4198175 C336.102662,10.4198175 336.491038,11.4758801 336.491038,12.3911343 C336.491038,13.9752282 335.219989,14.327249 334.125475,14.327249 L334.019555,14.327249 L336.738186,16.5801825 L334.761,16.5449804 Z M326.110809,15.7705346 C325.369364,16.36897 324.310158,16.6857888 323.003802,16.6857888 C321.697447,16.6857888 320.63824,16.36897 319.896795,15.7705346 C319.225964,15.2073012 318.837588,14.3976532 318.837588,13.4823989 C318.837588,12.5671447 319.190657,11.7574967 319.896795,11.1942634 C320.63824,10.5958279 321.697447,10.2790091 323.003802,10.2790091 C324.310158,10.2790091 325.369364,10.5958279 326.110809,11.1942634 C326.78164,11.7574967 327.170016,12.5671447 327.170016,13.4823989 C327.170016,14.3976532 326.78164,15.2073012 326.110809,15.7705346 Z M323.003802,11.4758801 C321.203151,11.4758801 320.17925,12.2151239 320.17925,13.4823989 C320.17925,14.7496741 321.203151,15.4889179 323.003802,15.4889179 C324.804454,15.4889179 325.828354,14.7496741 325.828354,13.4823989 C325.828354,12.2151239 324.804454,11.4758801 323.003802,11.4758801 L323.003802,11.4758801 Z" id="Shape" fill-rule="nonzero"></path>
            <g id="CONTRIBUTED-AND-MAIN" transform="translate(16.581055, 9.792969)" fill-rule="nonzero">
                <path d="M5.47363281,4.95117188 C5.38574219,5.703125 5.10823568,6.28336589 4.64111328,6.69189453 C4.17399089,7.10042318 3.5530599,7.3046875 2.77832031,7.3046875 C1.93847656,7.3046875 1.26546224,7.00358073 0.759277344,6.40136719 C0.253092448,5.79915365 0,4.99348958 0,3.984375 L0,3.30078125 C0,2.63997396 0.118001302,2.05891927 0.354003906,1.55761719 C0.59000651,1.0563151 0.924479167,0.671386719 1.35742188,0.402832031 C1.79036458,0.134277344 2.29166667,0 2.86132812,0 C3.61653646,0 4.22200521,0.21077474 4.67773438,0.632324219 C5.13346354,1.0538737 5.39876302,1.63736979 5.47363281,2.3828125 L4.53125,2.3828125 C4.44986979,1.81640625 4.27327474,1.40625 4.00146484,1.15234375 C3.72965495,0.8984375 3.34960938,0.771484375 2.86132812,0.771484375 C2.26236979,0.771484375 1.79280599,0.992838542 1.45263672,1.43554688 C1.11246745,1.87825521 0.942382812,2.50813802 0.942382812,3.32519531 L0.942382812,4.01367188 C0.942382812,4.78515625 1.10351562,5.39876302 1.42578125,5.85449219 C1.74804688,6.31022135 2.19889323,6.53808594 2.77832031,6.53808594 C3.29915365,6.53808594 3.69873047,6.42008464 3.97705078,6.18408203 C4.25537109,5.94807943 4.44010417,5.53710938 4.53125,4.95117188 L5.47363281,4.95117188 Z" id="Path"></path>
                <path d="M15.2216797,3.88183594 C15.2216797,4.57845052 15.1044922,5.18636068 14.8701172,5.70556641 C14.6357422,6.22477214 14.3037109,6.62109375 13.8740234,6.89453125 C13.4443359,7.16796875 12.9430339,7.3046875 12.3701172,7.3046875 C11.8102214,7.3046875 11.3138021,7.16715495 10.8808594,6.89208984 C10.4479167,6.61702474 10.1118164,6.22477214 9.87255859,5.71533203 C9.63330078,5.20589193 9.51041667,4.61588542 9.50390625,3.9453125 L9.50390625,3.43261719 C9.50390625,2.74902344 9.62272135,2.14518229 9.86035156,1.62109375 C10.0979818,1.09700521 10.434082,0.695800781 10.8686523,0.417480469 C11.3032227,0.139160156 11.8004557,0 12.3603516,0 C12.930013,0 13.4321289,0.137532552 13.8666992,0.412597656 C14.3012695,0.68766276 14.6357422,1.08642578 14.8701172,1.60888672 C15.1044922,2.13134766 15.2216797,2.73925781 15.2216797,3.43261719 L15.2216797,3.88183594 Z M14.2890625,3.42285156 C14.2890625,2.5797526 14.1197917,1.93277995 13.78125,1.48193359 C13.4427083,1.03108724 12.9690755,0.805664062 12.3603516,0.805664062 C11.7679036,0.805664062 11.3015951,1.03108724 10.9614258,1.48193359 C10.6212565,1.93277995 10.4462891,2.55859375 10.4365234,3.359375 L10.4365234,3.88183594 C10.4365234,4.69889323 10.6082357,5.34098307 10.9516602,5.80810547 C11.2950846,6.27522786 11.7679036,6.50878906 12.3701172,6.50878906 C12.9755859,6.50878906 13.4443359,6.2882487 13.7763672,5.84716797 C14.1083984,5.40608724 14.2792969,4.77376302 14.2890625,3.95019531 L14.2890625,3.42285156 Z" id="Shape"></path>
                <polygon id="Path" points="25.0917969 7.20703125 24.1494141 7.20703125 20.5703125 1.72851562 20.5703125 7.20703125 19.6279297 7.20703125 19.6279297 0.09765625 20.5703125 0.09765625 24.1591797 5.60058594 24.1591797 0.09765625 25.0917969 0.09765625"></polygon>
                <polygon id="Path" points="34.5273438 0.869140625 32.2421875 0.869140625 32.2421875 7.20703125 31.3095703 7.20703125 31.3095703 0.869140625 29.0292969 0.869140625 29.0292969 0.09765625 34.5273438 0.09765625"></polygon>
                <path d="M41.1894531,4.33105469 L39.5195312,4.33105469 L39.5195312,7.20703125 L38.5771484,7.20703125 L38.5771484,0.09765625 L40.9306641,0.09765625 C41.7314453,0.09765625 42.3474935,0.279947917 42.7788086,0.64453125 C43.2101237,1.00911458 43.4257812,1.53971354 43.4257812,2.23632812 C43.4257812,2.67903646 43.3061523,3.06477865 43.0668945,3.39355469 C42.8276367,3.72233073 42.4947917,3.96809896 42.0683594,4.13085938 L43.7382812,7.1484375 L43.7382812,7.20703125 L42.7324219,7.20703125 L41.1894531,4.33105469 Z M39.5195312,3.56445312 L40.9599609,3.56445312 C41.4254557,3.56445312 41.7957357,3.44401042 42.0708008,3.203125 C42.3458659,2.96223958 42.4833984,2.63997396 42.4833984,2.23632812 C42.4833984,1.796875 42.3523763,1.45996094 42.090332,1.22558594 C41.8282878,0.991210938 41.4498698,0.872395833 40.9550781,0.869140625 L39.5195312,0.869140625 L39.5195312,3.56445312 Z" id="Shape"></path>
                <polygon id="Path" points="48.7451172 7.20703125 47.8076172 7.20703125 47.8076172 0.09765625 48.7451172 0.09765625"></polygon>
                <path d="M53.4589844,7.20703125 L53.4589844,0.09765625 L55.7832031,0.09765625 C56.5546875,0.09765625 57.1349284,0.257161458 57.5239258,0.576171875 C57.9129232,0.895182292 58.1074219,1.3671875 58.1074219,1.9921875 C58.1074219,2.32421875 58.0130208,2.6180013 57.8242188,2.87353516 C57.6354167,3.12906901 57.3782552,3.32682292 57.0527344,3.46679688 C57.436849,3.57421875 57.7403971,3.77848307 57.9633789,4.07958984 C58.1863607,4.38069661 58.2978516,4.73958333 58.2978516,5.15625 C58.2978516,5.79427083 58.0911458,6.29557292 57.6777344,6.66015625 C57.2643229,7.02473958 56.680013,7.20703125 55.9248047,7.20703125 L53.4589844,7.20703125 Z M54.3964844,3.88183594 L54.3964844,6.44042969 L55.9443359,6.44042969 C56.3805339,6.44042969 56.7247721,6.3273112 56.9770508,6.10107422 C57.2293294,5.87483724 57.3554688,5.56315104 57.3554688,5.16601562 C57.3554688,4.30989583 56.889974,3.88183594 55.9589844,3.88183594 L54.3964844,3.88183594 Z M54.3964844,3.12988281 L55.8125,3.12988281 C56.2226562,3.12988281 56.5506185,3.02734375 56.7963867,2.82226562 C57.0421549,2.6171875 57.1650391,2.33886719 57.1650391,1.98730469 C57.1650391,1.59667969 57.0511068,1.31266276 56.8232422,1.13525391 C56.5953776,0.957845052 56.2486979,0.869140625 55.7832031,0.869140625 L54.3964844,0.869140625 L54.3964844,3.12988281 Z" id="Shape"></path>
                <path d="M67.6894531,0.09765625 L67.6894531,4.93164062 C67.6861979,5.60221354 67.4754232,6.15071615 67.0571289,6.57714844 C66.6388346,7.00358073 66.0716146,7.24283854 65.3554688,7.29492188 L65.1064453,7.3046875 C64.3284505,7.3046875 63.7083333,7.09472656 63.2460938,6.67480469 C62.7838542,6.25488281 62.5494792,5.67708333 62.5429688,4.94140625 L62.5429688,0.09765625 L63.4707031,0.09765625 L63.4707031,4.91210938 C63.4707031,5.42643229 63.6123047,5.82600911 63.8955078,6.11083984 C64.1787109,6.39567057 64.5823568,6.53808594 65.1064453,6.53808594 C65.6370443,6.53808594 66.0431315,6.39648438 66.324707,6.11328125 C66.6062826,5.83007812 66.7470703,5.4313151 66.7470703,4.91699219 L66.7470703,0.09765625 L67.6894531,0.09765625 Z" id="Path"></path>
                <polygon id="Path" points="77.0810547 0.869140625 74.7958984 0.869140625 74.7958984 7.20703125 73.8632812 7.20703125 73.8632812 0.869140625 71.5830078 0.869140625 71.5830078 0.09765625 77.0810547 0.09765625"></polygon>
                <polygon id="Path" points="85.1542969 3.92089844 82.0732422 3.92089844 82.0732422 6.44042969 85.6523438 6.44042969 85.6523438 7.20703125 81.1357422 7.20703125 81.1357422 0.09765625 85.6035156 0.09765625 85.6035156 0.869140625 82.0732422 0.869140625 82.0732422 3.15429688 85.1542969 3.15429688"></polygon>
                <path d="M89.8193359,7.20703125 L89.8193359,0.09765625 L91.8261719,0.09765625 C92.4446615,0.09765625 92.9915365,0.234375 93.4667969,0.5078125 C93.9420573,0.78125 94.309082,1.1702474 94.5678711,1.67480469 C94.8266602,2.17936198 94.9576823,2.75878906 94.9609375,3.41308594 L94.9609375,3.8671875 C94.9609375,4.53776042 94.831543,5.12532552 94.5727539,5.62988281 C94.3139648,6.1344401 93.9444987,6.5218099 93.4643555,6.79199219 C92.9842122,7.06217448 92.4251302,7.20052083 91.7871094,7.20703125 L89.8193359,7.20703125 Z M90.7568359,0.869140625 L90.7568359,6.44042969 L91.7431641,6.44042969 C92.4658203,6.44042969 93.0281576,6.21582031 93.4301758,5.76660156 C93.832194,5.31738281 94.0332031,4.67773438 94.0332031,3.84765625 L94.0332031,3.43261719 C94.0332031,2.62532552 93.8435872,1.99788411 93.4643555,1.55029297 C93.0851237,1.10270182 92.5472005,0.875651042 91.8505859,0.869140625 L90.7568359,0.869140625 Z" id="Shape"></path>
                <path d="M108.77832,5.3515625 L105.799805,5.3515625 L105.130859,7.20703125 L104.164062,7.20703125 L106.878906,0.09765625 L107.699219,0.09765625 L110.418945,7.20703125 L109.457031,7.20703125 L108.77832,5.3515625 Z M106.083008,4.58007812 L108.5,4.58007812 L107.289062,1.25488281 L106.083008,4.58007812 Z" id="Shape"></path>
                <polygon id="Path" points="119.839844 7.20703125 118.897461 7.20703125 115.318359 1.72851562 115.318359 7.20703125 114.375977 7.20703125 114.375977 0.09765625 115.318359 0.09765625 118.907227 5.60058594 118.907227 0.09765625 119.839844 0.09765625"></polygon>
                <path d="M124.504883,7.20703125 L124.504883,0.09765625 L126.511719,0.09765625 C127.130208,0.09765625 127.677083,0.234375 128.152344,0.5078125 C128.627604,0.78125 128.994629,1.1702474 129.253418,1.67480469 C129.512207,2.17936198 129.643229,2.75878906 129.646484,3.41308594 L129.646484,3.8671875 C129.646484,4.53776042 129.51709,5.12532552 129.258301,5.62988281 C128.999512,6.1344401 128.630046,6.5218099 128.149902,6.79199219 C127.669759,7.06217448 127.110677,7.20052083 126.472656,7.20703125 L124.504883,7.20703125 Z M125.442383,0.869140625 L125.442383,6.44042969 L126.428711,6.44042969 C127.151367,6.44042969 127.713704,6.21582031 128.115723,5.76660156 C128.517741,5.31738281 128.71875,4.67773438 128.71875,3.84765625 L128.71875,3.43261719 C128.71875,2.62532552 128.529134,1.99788411 128.149902,1.55029297 C127.770671,1.10270182 127.232747,0.875651042 126.536133,0.869140625 L125.442383,0.869140625 Z" id="Shape"></path>
                <polygon id="Path" points="140.749023 0.09765625 143.073242 5.8984375 145.397461 0.09765625 146.613281 0.09765625 146.613281 7.20703125 145.675781 7.20703125 145.675781 4.43847656 145.763672 1.45019531 143.429688 7.20703125 142.711914 7.20703125 140.382812 1.46484375 140.475586 4.43847656 140.475586 7.20703125 139.538086 7.20703125 139.538086 0.09765625"></polygon>
                <path d="M155.282227,5.3515625 L152.303711,5.3515625 L151.634766,7.20703125 L150.667969,7.20703125 L153.382812,0.09765625 L154.203125,0.09765625 L156.922852,7.20703125 L155.960938,7.20703125 L155.282227,5.3515625 Z M152.586914,4.58007812 L155.003906,4.58007812 L153.792969,1.25488281 L152.586914,4.58007812 Z" id="Shape"></path>
                <polygon id="Path" points="161.885742 7.20703125 160.948242 7.20703125 160.948242 0.09765625 161.885742 0.09765625"></polygon>
                <polygon id="Path" points="172.063477 7.20703125 171.121094 7.20703125 167.541992 1.72851562 167.541992 7.20703125 166.599609 7.20703125 166.599609 0.09765625 167.541992 0.09765625 171.130859 5.60058594 171.130859 0.09765625 172.063477 0.09765625"></polygon>
                <polygon id="Path" points="181.499023 0.869140625 179.213867 0.869140625 179.213867 7.20703125 178.28125 7.20703125 178.28125 0.869140625 176.000977 0.869140625 176.000977 0.09765625 181.499023 0.09765625"></polygon>
                <path d="M189.09375,5.3515625 L186.115234,5.3515625 L185.446289,7.20703125 L184.479492,7.20703125 L187.194336,0.09765625 L188.014648,0.09765625 L190.734375,7.20703125 L189.772461,7.20703125 L189.09375,5.3515625 Z M186.398438,4.58007812 L188.81543,4.58007812 L187.604492,1.25488281 L186.398438,4.58007812 Z" id="Shape"></path>
                <polygon id="Path" points="195.697266 7.20703125 194.759766 7.20703125 194.759766 0.09765625 195.697266 0.09765625"></polygon>
                <polygon id="Path" points="205.875 7.20703125 204.932617 7.20703125 201.353516 1.72851562 201.353516 7.20703125 200.411133 7.20703125 200.411133 0.09765625 201.353516 0.09765625 204.942383 5.60058594 204.942383 0.09765625 205.875 0.09765625"></polygon>
                <polygon id="Path" points="214.558594 3.92089844 211.477539 3.92089844 211.477539 6.44042969 215.056641 6.44042969 215.056641 7.20703125 210.540039 7.20703125 210.540039 0.09765625 215.007812 0.09765625 215.007812 0.869140625 211.477539 0.869140625 211.477539 3.15429688 214.558594 3.15429688"></polygon>
                <path d="M219.223633,7.20703125 L219.223633,0.09765625 L221.230469,0.09765625 C221.848958,0.09765625 222.395833,0.234375 222.871094,0.5078125 C223.346354,0.78125 223.713379,1.1702474 223.972168,1.67480469 C224.230957,2.17936198 224.361979,2.75878906 224.365234,3.41308594 L224.365234,3.8671875 C224.365234,4.53776042 224.23584,5.12532552 223.977051,5.62988281 C223.718262,6.1344401 223.348796,6.5218099 222.868652,6.79199219 C222.388509,7.06217448 221.829427,7.20052083 221.191406,7.20703125 L219.223633,7.20703125 Z M220.161133,0.869140625 L220.161133,6.44042969 L221.147461,6.44042969 C221.870117,6.44042969 222.432454,6.21582031 222.834473,5.76660156 C223.236491,5.31738281 223.4375,4.67773438 223.4375,3.84765625 L223.4375,3.43261719 C223.4375,2.62532552 223.247884,1.99788411 222.868652,1.55029297 C222.489421,1.10270182 221.951497,0.875651042 221.254883,0.869140625 L220.161133,0.869140625 Z" id="Shape"></path>
                <path d="M234.256836,7.20703125 L234.256836,0.09765625 L236.581055,0.09765625 C237.352539,0.09765625 237.93278,0.257161458 238.321777,0.576171875 C238.710775,0.895182292 238.905273,1.3671875 238.905273,1.9921875 C238.905273,2.32421875 238.810872,2.6180013 238.62207,2.87353516 C238.433268,3.12906901 238.176107,3.32682292 237.850586,3.46679688 C238.234701,3.57421875 238.538249,3.77848307 238.76123,4.07958984 C238.984212,4.38069661 239.095703,4.73958333 239.095703,5.15625 C239.095703,5.79427083 238.888997,6.29557292 238.475586,6.66015625 C238.062174,7.02473958 237.477865,7.20703125 236.722656,7.20703125 L234.256836,7.20703125 Z M235.194336,3.88183594 L235.194336,6.44042969 L236.742188,6.44042969 C237.178385,6.44042969 237.522624,6.3273112 237.774902,6.10107422 C238.027181,5.87483724 238.15332,5.56315104 238.15332,5.16601562 C238.15332,4.30989583 237.687826,3.88183594 236.756836,3.88183594 L235.194336,3.88183594 Z M235.194336,3.12988281 L236.610352,3.12988281 C237.020508,3.12988281 237.34847,3.02734375 237.594238,2.82226562 C237.840007,2.6171875 237.962891,2.33886719 237.962891,1.98730469 C237.962891,1.59667969 237.848958,1.31266276 237.621094,1.13525391 C237.393229,0.957845052 237.046549,0.869140625 236.581055,0.869140625 L235.194336,0.869140625 L235.194336,3.12988281 Z" id="Shape"></path>
                <polygon id="Path" points="245.381836 3.66699219 247.237305 0.09765625 248.301758 0.09765625 245.850586 4.55566406 245.850586 7.20703125 244.913086 7.20703125 244.913086 4.55566406 242.461914 0.09765625 243.536133 0.09765625"></polygon>
            </g>
        </g>
    </g>
</svg>
