<svg width="347px" height="40px" viewBox="0 0 347 40" version="1.1" xmlns="http://www.w3.org/2000/svg" xmlns:xlink="http://www.w3.org/1999/xlink">
  <g id="contributor-armor-mid" stroke="none" stroke-width="1" fill="none" fill-rule="evenodd">
    <path d="M280,13 L280,40 L0,40 L0,13 L280,13 Z M28.9414062,22.7929688 C28.3815104,22.7929688 27.8842773,22.9321289 27.449707,23.2104492 C27.0151367,23.4887695 26.6790365,23.889974 26.4414062,24.4140625 C26.203776,24.938151 26.0849609,25.5419922 26.0849609,26.2255859 L26.0849609,26.7382812 C26.0914714,27.4088542 26.2143555,27.9988607 26.4536133,28.5083008 C26.6928711,29.0177409 27.0289714,29.4099935 27.4619141,29.6850586 C27.8948568,29.9601237 28.391276,30.0976562 28.9511719,30.0976562 C29.5240885,30.0976562 30.0253906,29.9609375 30.4550781,29.6875 C30.8847656,29.4140625 31.2167969,29.0177409 31.4511719,28.4985352 C31.6855469,27.9793294 31.8027344,27.3714193 31.8027344,26.6748047 L31.8027344,26.2255859 C31.8027344,25.5322266 31.6855469,24.9243164 31.4511719,24.4018555 C31.2167969,23.8793945 30.8823242,23.4806315 30.4477539,23.2055664 C30.0131836,22.9305013 29.5110677,22.7929688 28.9414062,22.7929688 Z M80.0517578,22.890625 L79.1240234,22.890625 L79.1240234,27.734375 C79.1305339,28.4700521 79.3649089,29.0478516 79.8271484,29.4677734 C80.289388,29.8876953 80.9095052,30.0976562 81.6875,30.0976562 L81.9365234,30.0878906 C82.6526693,30.0358073 83.2198893,29.7965495 83.6381836,29.3701172 C84.0564779,28.9436849 84.2672526,28.3951823 84.2705078,27.7246094 L84.2705078,22.890625 L83.328125,22.890625 L83.328125,27.7099609 C83.328125,28.2242839 83.1873372,28.6230469 82.9057617,28.90625 C82.6241862,29.1894531 82.218099,29.3310547 81.6875,29.3310547 C81.1634115,29.3310547 80.7597656,29.1886393 80.4765625,28.9038086 C80.1933594,28.6189779 80.0517578,28.219401 80.0517578,27.7050781 L80.0517578,22.890625 Z M19.4423828,22.7929688 C18.8727214,22.7929688 18.3714193,22.9272461 17.9384766,23.1958008 C17.5055339,23.4643555 17.1710612,23.8492839 16.9350586,24.3505859 C16.699056,24.851888 16.5810547,25.4329427 16.5810547,26.09375 L16.5810547,26.7773438 C16.5810547,27.7864583 16.8341471,28.5921224 17.340332,29.1943359 C17.8465169,29.7965495 18.5195312,30.0976562 19.359375,30.0976562 C20.1341146,30.0976562 20.7550456,29.8933919 21.222168,29.4848633 C21.6892904,29.0763346 21.9667969,28.4960938 22.0546875,27.7441406 L21.1123047,27.7441406 C21.0211589,28.3300781 20.8364258,28.7410482 20.5581055,28.9770508 C20.2797852,29.2130534 19.8802083,29.3310547 19.359375,29.3310547 C18.7799479,29.3310547 18.3291016,29.1031901 18.0068359,28.6474609 C17.6845703,28.1917318 17.5234375,27.578125 17.5234375,26.8066406 L17.5234375,26.1181641 C17.5234375,25.3011068 17.6935221,24.671224 18.0336914,24.2285156 C18.3738607,23.7858073 18.8434245,23.5644531 19.4423828,23.5644531 C19.9306641,23.5644531 20.3107096,23.6914062 20.5825195,23.9453125 C20.8543294,24.1992188 21.0309245,24.609375 21.1123047,25.1757812 L22.0546875,25.1757812 C21.9798177,24.4303385 21.7145182,23.8468424 21.2587891,23.425293 C20.8030599,23.0037435 20.1975911,22.7929688 19.4423828,22.7929688 Z M108.407227,22.890625 L106.400391,22.890625 L106.400391,30 L108.368164,30 C109.006185,29.9934896 109.565267,29.8551432 110.04541,29.5849609 C110.525553,29.3147786 110.89502,28.9274089 111.153809,28.4228516 C111.412598,27.9182943 111.541992,27.3307292 111.541992,26.6601562 L111.541992,26.2060547 C111.538737,25.5517578 111.407715,24.9723307 111.148926,24.4677734 C110.890137,23.9632161 110.523112,23.5742188 110.047852,23.3007812 C109.572591,23.0273438 109.025716,22.890625 108.407227,22.890625 Z M124.280273,22.890625 L123.459961,22.890625 L120.745117,30 L121.711914,30 L122.380859,28.1445312 L125.359375,28.1445312 L126.038086,30 L127,30 L124.280273,22.890625 Z M170.78418,22.890625 L169.963867,22.890625 L167.249023,30 L168.21582,30 L168.884766,28.1445312 L171.863281,28.1445312 L172.541992,30 L173.503906,30 L170.78418,22.890625 Z M143.092773,22.890625 L141.085938,22.890625 L141.085938,30 L143.053711,30 C143.691732,29.9934896 144.250814,29.8551432 144.730957,29.5849609 C145.2111,29.3147786 145.580566,28.9274089 145.839355,28.4228516 C146.098145,27.9182943 146.227539,27.3307292 146.227539,26.6601562 L146.227539,26.2060547 C146.224284,25.5517578 146.093262,24.9723307 145.834473,24.4677734 C145.575684,23.9632161 145.208659,23.5742188 144.733398,23.3007812 C144.258138,23.0273438 143.711263,22.890625 143.092773,22.890625 Z M237.811523,22.890625 L235.804688,22.890625 L235.804688,30 L237.772461,30 C238.410482,29.9934896 238.969564,29.8551432 239.449707,29.5849609 C239.92985,29.3147786 240.299316,28.9274089 240.558105,28.4228516 C240.816895,27.9182943 240.946289,27.3307292 240.946289,26.6601562 L240.946289,26.2060547 C240.943034,25.5517578 240.812012,24.9723307 240.553223,24.4677734 C240.294434,23.9632161 239.927409,23.5742188 239.452148,23.3007812 C238.976888,23.0273438 238.430013,22.890625 237.811523,22.890625 Z M37.1513672,22.890625 L36.2089844,22.890625 L36.2089844,30 L37.1513672,30 L37.1513672,24.5214844 L40.7304688,30 L41.6728516,30 L41.6728516,22.890625 L40.7402344,22.890625 L40.7402344,28.3935547 L37.1513672,22.890625 Z M157.330078,22.890625 L156.119141,22.890625 L156.119141,30 L157.056641,30 L157.056641,27.2314453 L156.963867,24.2578125 L159.292969,30 L160.010742,30 L162.344727,24.2431641 L162.256836,27.2314453 L162.256836,30 L163.194336,30 L163.194336,22.890625 L161.978516,22.890625 L159.654297,28.6914062 L157.330078,22.890625 Z M260.117188,22.890625 L259.042969,22.890625 L261.494141,27.3486328 L261.494141,30 L262.431641,30 L262.431641,27.3486328 L264.882812,22.890625 L263.818359,22.890625 L261.962891,26.4599609 L260.117188,22.890625 Z M51.1083984,22.890625 L45.6103516,22.890625 L45.6103516,23.6621094 L47.890625,23.6621094 L47.890625,30 L48.8232422,30 L48.8232422,23.6621094 L51.1083984,23.6621094 L51.1083984,22.890625 Z M57.5117188,22.890625 L55.1582031,22.890625 L55.1582031,30 L56.1005859,30 L56.1005859,27.1240234 L57.7705078,27.1240234 L59.3134766,30 L60.3193359,30 L60.3193359,29.9414062 L58.6494141,26.9238281 C59.0758464,26.7610677 59.4086914,26.5152995 59.6479492,26.1865234 C59.887207,25.8577474 60.0068359,25.4720052 60.0068359,25.0292969 C60.0068359,24.3326823 59.7911784,23.8020833 59.3598633,23.4375 C58.9285482,23.0729167 58.3125,22.890625 57.5117188,22.890625 Z M204.595703,22.890625 L203.775391,22.890625 L201.060547,30 L202.027344,30 L202.696289,28.1445312 L205.674805,28.1445312 L206.353516,30 L207.31543,30 L204.595703,22.890625 Z M65.3261719,22.890625 L64.3886719,22.890625 L64.3886719,30 L65.3261719,30 L65.3261719,22.890625 Z M72.3642578,22.890625 L70.0400391,22.890625 L70.0400391,30 L72.5058594,30 C73.2610677,30 73.8453776,29.8177083 74.2587891,29.453125 C74.6722005,29.0885417 74.8789062,28.5872396 74.8789062,27.9492188 C74.8789062,27.5325521 74.7674154,27.1736654 74.5444336,26.8725586 C74.3214518,26.5714518 74.0179036,26.3671875 73.6337891,26.2597656 C73.9593099,26.1197917 74.2164714,25.9220378 74.4052734,25.6665039 C74.5940755,25.4109701 74.6884766,25.1171875 74.6884766,24.7851562 C74.6884766,24.1601562 74.4939779,23.688151 74.1049805,23.3691406 C73.7159831,23.0501302 73.1357422,22.890625 72.3642578,22.890625 Z M198.080078,22.890625 L192.582031,22.890625 L192.582031,23.6621094 L194.862305,23.6621094 L194.862305,30 L195.794922,30 L195.794922,23.6621094 L198.080078,23.6621094 L198.080078,22.890625 Z M253.162109,22.890625 L250.837891,22.890625 L250.837891,30 L253.303711,30 C254.058919,30 254.643229,29.8177083 255.056641,29.453125 C255.470052,29.0885417 255.676758,28.5872396 255.676758,27.9492188 C255.676758,27.5325521 255.565267,27.1736654 255.342285,26.8725586 C255.119303,26.5714518 254.815755,26.3671875 254.431641,26.2597656 C254.757161,26.1197917 255.014323,25.9220378 255.203125,25.6665039 C255.391927,25.4109701 255.486328,25.1171875 255.486328,24.7851562 C255.486328,24.1601562 255.291829,23.688151 254.902832,23.3691406 C254.513835,23.0501302 253.933594,22.890625 253.162109,22.890625 Z M184.123047,22.890625 L183.180664,22.890625 L183.180664,30 L184.123047,30 L184.123047,24.5214844 L187.702148,30 L188.644531,30 L188.644531,22.890625 L187.711914,22.890625 L187.711914,28.3935547 L184.123047,22.890625 Z M212.27832,22.890625 L211.34082,22.890625 L211.34082,30 L212.27832,30 L212.27832,22.890625 Z M93.6621094,22.890625 L88.1640625,22.890625 L88.1640625,23.6621094 L90.4443359,23.6621094 L90.4443359,30 L91.3769531,30 L91.3769531,23.6621094 L93.6621094,23.6621094 L93.6621094,22.890625 Z M102.18457,22.890625 L97.7167969,22.890625 L97.7167969,30 L102.233398,30 L102.233398,29.2333984 L98.6542969,29.2333984 L98.6542969,26.7138672 L101.735352,26.7138672 L101.735352,25.9472656 L98.6542969,25.9472656 L98.6542969,23.6621094 L102.18457,23.6621094 L102.18457,22.890625 Z M217.93457,22.890625 L216.992188,22.890625 L216.992188,30 L217.93457,30 L217.93457,24.5214844 L221.513672,30 L222.456055,30 L222.456055,22.890625 L221.523438,22.890625 L221.523438,28.3935547 L217.93457,22.890625 Z M131.899414,22.890625 L130.957031,22.890625 L130.957031,30 L131.899414,30 L131.899414,24.5214844 L135.478516,30 L136.420898,30 L136.420898,22.890625 L135.488281,22.890625 L135.488281,28.3935547 L131.899414,22.890625 Z M231.588867,22.890625 L227.121094,22.890625 L227.121094,30 L231.637695,30 L231.637695,29.2333984 L228.058594,29.2333984 L228.058594,26.7138672 L231.139648,26.7138672 L231.139648,25.9472656 L228.058594,25.9472656 L228.058594,23.6621094 L231.588867,23.6621094 L231.588867,22.890625 Z M178.466797,22.890625 L177.529297,22.890625 L177.529297,30 L178.466797,30 L178.466797,22.890625 Z M28.9414062,23.5986328 C29.5501302,23.5986328 30.023763,23.824056 30.3623047,24.2749023 C30.7008464,24.7257487 30.8701172,25.3727214 30.8701172,26.2158203 L30.8701172,26.7431641 C30.8603516,27.5667318 30.6894531,28.199056 30.3574219,28.6401367 C30.0253906,29.0812174 29.5566406,29.3017578 28.9511719,29.3017578 C28.3489583,29.3017578 27.8761393,29.0681966 27.5327148,28.6010742 C27.1892904,28.1339518 27.0175781,27.491862 27.0175781,26.6748047 L27.0175781,26.1523438 C27.0273438,25.3515625 27.2023112,24.7257487 27.5424805,24.2749023 C27.8826497,23.824056 28.3489583,23.5986328 28.9414062,23.5986328 Z M143.117188,23.6621094 C143.813802,23.6686198 144.351725,23.8956706 144.730957,24.3432617 C145.110189,24.7908529 145.299805,25.4182943 145.299805,26.2255859 L145.299805,26.640625 C145.299805,27.4707031 145.098796,28.1103516 144.696777,28.5595703 C144.294759,29.0087891 143.732422,29.2333984 143.009766,29.2333984 L142.023438,29.2333984 L142.023438,23.6621094 Z M108.431641,23.6621094 C109.128255,23.6686198 109.666178,23.8956706 110.04541,24.3432617 C110.424642,24.7908529 110.614258,25.4182943 110.614258,26.2255859 L110.614258,26.640625 C110.614258,27.4707031 110.413249,28.1103516 110.01123,28.5595703 C109.609212,29.0087891 109.046875,29.2333984 108.324219,29.2333984 L107.337891,29.2333984 L107.337891,23.6621094 Z M237.835938,23.6621094 C238.532552,23.6686198 239.070475,23.8956706 239.449707,24.3432617 C239.828939,24.7908529 240.018555,25.4182943 240.018555,26.2255859 L240.018555,26.640625 C240.018555,27.4707031 239.817546,28.1103516 239.415527,28.5595703 C239.013509,29.0087891 238.451172,29.2333984 237.728516,29.2333984 L236.742188,29.2333984 L236.742188,23.6621094 Z M72.5400391,26.6748047 C73.4710286,26.6748047 73.9365234,27.1028646 73.9365234,27.9589844 C73.9365234,28.3561198 73.8103841,28.667806 73.5581055,28.894043 C73.3058268,29.1202799 72.9615885,29.2333984 72.5253906,29.2333984 L70.9775391,29.2333984 L70.9775391,26.6748047 Z M253.337891,26.6748047 C254.26888,26.6748047 254.734375,27.1028646 254.734375,27.9589844 C254.734375,28.3561198 254.608236,28.667806 254.355957,28.894043 C254.103678,29.1202799 253.75944,29.2333984 253.323242,29.2333984 L251.775391,29.2333984 L251.775391,26.6748047 Z M170.374023,24.0478516 L171.584961,27.3730469 L169.167969,27.3730469 L170.374023,24.0478516 Z M204.185547,24.0478516 L205.396484,27.3730469 L202.979492,27.3730469 L204.185547,24.0478516 Z M123.870117,24.0478516 L125.081055,27.3730469 L122.664062,27.3730469 L123.870117,24.0478516 Z M57.5361328,23.6621094 C58.0309245,23.6653646 58.4093424,23.7841797 58.6713867,24.0185547 C58.933431,24.2529297 59.0644531,24.5898438 59.0644531,25.0292969 C59.0644531,25.4329427 58.9269206,25.7552083 58.6518555,25.9960938 C58.3767904,26.2369792 58.0065104,26.3574219 57.5410156,26.3574219 L56.1005859,26.3574219 L56.1005859,23.6621094 Z M72.3642578,23.6621094 C72.8297526,23.6621094 73.1764323,23.7508138 73.4042969,23.9282227 C73.6321615,24.1056315 73.7460938,24.3896484 73.7460938,24.7802734 C73.7460938,25.1318359 73.6232096,25.4101562 73.3774414,25.6152344 C73.1316732,25.8203125 72.8037109,25.9228516 72.3935547,25.9228516 L70.9775391,25.9228516 L70.9775391,23.6621094 Z M253.162109,23.6621094 C253.627604,23.6621094 253.974284,23.7508138 254.202148,23.9282227 C254.430013,24.1056315 254.543945,24.3896484 254.543945,24.7802734 C254.543945,25.1318359 254.421061,25.4101562 254.175293,25.6152344 C253.929525,25.8203125 253.601562,25.9228516 253.191406,25.9228516 L251.775391,25.9228516 L251.775391,23.6621094 Z" id="Combined-Shape" fill="#777777"></path>
    <path d="M314.51195,13 L314.51195,26.2711864 L314.51195,26.3063885 L314.51195,26.3415906 L316.983433,23.4198175 L318.289788,23.4198175 L318.289788,29.5449804 L316.983433,29.5449804 L316.983433,26.0247718 L317.01874,25.1447197 L317.01874,25.1095176 L314.51195,28.0664928 L314.51195,28.1016949 L314.51195,28.136897 L314.51195,40 L346.5,40 L346.5,13 L314.51195,13 Z M313.134981,28.136897 L313.134981,28.0664928 L310.663498,25.1095176 L310.628191,25.0743155 L310.663498,26.0247718 L310.663498,29.5449804 L309.357143,29.5449804 L309.357143,23.4198175 L310.663498,23.4198175 L313.134981,26.3415906 L313.134981,26.3063885 L313.134981,26.2711864 L313.134981,13 L281.5,13 L281.5,39.9647979 L313.134981,39.9647979 L313.134981,28.136897 Z M296.858501,29.5449804 L295.905215,27.8200782 L295.834601,27.8200782 L295.799294,27.8200782 L295.481532,27.8200782 L293.610266,27.8200782 L294.24579,26.6232073 L295.093156,26.6232073 L295.26969,26.6232073 L294.104563,24.5110821 L294.104563,24.4758801 L292.762901,26.8696219 L291.280011,29.5449804 L289.797121,29.5449804 L293.327811,23.3846154 L294.846008,23.3846154 L298.376697,29.5449804 L296.858501,29.5449804 Z M305.543998,29.5449804 L303.001901,27.327249 L303.001901,26.1303781 L304.979087,26.1303781 C305.649919,26.1303781 306.002988,25.8839635 306.002988,25.3559322 C306.002988,24.8279009 305.649919,24.5814863 304.979087,24.5814863 L301.30717,24.5814863 L301.30717,29.5449804 L300.000815,29.5449804 L300.000815,23.4198175 L304.908474,23.4198175 C306.88566,23.4198175 307.274036,24.4758801 307.274036,25.3911343 C307.274036,26.9752282 306.002988,27.327249 304.908474,27.327249 L304.802553,27.327249 L307.521184,29.5801825 L305.543998,29.5449804 Z M336.261,29.5449804 L333.718903,27.327249 L333.718903,26.1303781 L335.696089,26.1303781 C336.36692,26.1303781 336.719989,25.8839635 336.719989,25.3559322 C336.719989,24.8279009 336.36692,24.5814863 335.696089,24.5814863 L332.024172,24.5814863 L332.024172,29.5449804 L330.717817,29.5449804 L330.717817,23.4198175 L335.625475,23.4198175 C337.602662,23.4198175 337.991038,24.4758801 337.991038,25.3911343 C337.991038,26.9752282 336.719989,27.327249 335.625475,27.327249 L335.519555,27.327249 L338.238186,29.5801825 L336.261,29.5449804 Z M327.610809,28.7705346 C326.869364,29.36897 325.810158,29.6857888 324.503802,29.6857888 C323.197447,29.6857888 322.13824,29.36897 321.396795,28.7705346 C320.725964,28.2073012 320.337588,27.3976532 320.337588,26.4823989 C320.337588,25.5671447 320.690657,24.7574967 321.396795,24.1942634 C322.13824,23.5958279 323.197447,23.2790091 324.503802,23.2790091 C325.810158,23.2790091 326.869364,23.5958279 327.610809,24.1942634 C328.28164,24.7574967 328.670016,25.5671447 328.670016,26.4823989 C328.670016,27.3976532 328.28164,28.2073012 327.610809,28.7705346 Z M324.503802,24.4758801 C322.703151,24.4758801 321.67925,25.2151239 321.67925,26.4823989 C321.67925,27.7496741 322.703151,28.4889179 324.503802,28.4889179 C326.304454,28.4889179 327.328354,27.7496741 327.328354,26.4823989 C327.328354,25.2151239 326.304454,24.4758801 324.503802,24.4758801 L324.503802,24.4758801 Z" id="Shape" fill="#BBBBBB" fill-rule="nonzero"></path>
  </g>
</svg>
